<svg xmlns="http://www.w3.org/2000/svg" xmlns:xlink="http://www.w3.org/1999/xlink" width="250" zoomAndPan="magnify" viewBox="0 0 187.5 50.249999" height="67" preserveAspectRatio="xMidYMid meet" version="1.0"><defs><g/><clipPath id="e0403cbd45"><path d="M 14.800781 8.433594 L 65.789062 8.433594 L 65.789062 36.515625 L 14.800781 36.515625 Z M 14.800781 8.433594 " clip-rule="nonzero"/></clipPath></defs><g clip-path="url(#e0403cbd45)"><path fill="#2d9524" d="M 23.347656 15.898438 C 20.929688 15.042969 18.460938 14.429688 15.976562 13.847656 C 15.613281 13.761719 15.34375 13.46875 15.269531 13.105469 C 15.269531 13.09375 15.269531 13.09375 15.269531 13.085938 C 15.132812 12.417969 15.738281 11.832031 16.40625 11.988281 C 19.0625 12.605469 21.691406 13.273438 24.257812 14.253906 C 24.765625 14.460938 24.984375 14.992188 24.734375 15.441406 C 24.484375 15.890625 23.859375 16.097656 23.347656 15.898438 Z M 26.339844 11.03125 C 24.007812 10 21.640625 9.238281 19.199219 8.613281 C 18.71875 8.496094 18.230469 8.433594 17.730469 8.433594 L 15.425781 8.433594 C 15.082031 8.433594 14.808594 8.714844 14.820312 9.050781 L 14.820312 9.058594 C 14.832031 9.332031 15.019531 9.570312 15.289062 9.632812 C 18.53125 10.382812 22.683594 11.488281 25.339844 12.605469 C 25.871094 12.84375 26.539062 12.6875 26.820312 12.238281 C 27.09375 11.800781 26.875 11.269531 26.339844 11.03125 Z M 42.199219 25.949219 C 38.59375 28.609375 35.277344 31.613281 32.234375 34.90625 C 32.074219 35.082031 31.980469 35.304688 31.980469 35.542969 C 31.980469 36.0625 32.398438 36.480469 32.921875 36.480469 L 48.863281 36.480469 C 48.863281 34.300781 48.082031 32.183594 46.640625 30.546875 C 45.054688 28.722656 43.574219 27.210938 42.199219 25.949219 Z M 39.78125 23.886719 C 37.058594 21.738281 34.660156 20.382812 32.304688 18.984375 C 31.585938 18.539062 30.761719 18.257812 29.917969 18.164062 C 29.082031 18.070312 28.230469 18.152344 27.4375 18.421875 C 26.894531 18.601562 26.320312 18.671875 25.769531 18.652344 C 25.207031 18.621094 24.652344 18.496094 24.140625 18.277344 C 21.898438 17.378906 19.597656 16.746094 17.269531 16.171875 C 16.707031 16.035156 16.226562 16.578125 16.4375 17.121094 C 18.5 22.4375 22.402344 26.835938 27.363281 29.546875 C 29.261719 30.578125 31.605469 30.328125 33.242188 28.921875 C 35.320312 27.117188 37.496094 25.441406 39.78125 23.886719 Z M 24.953125 8.433594 C 26.433594 9.007812 27.894531 9.644531 29.367188 10.351562 C 30.367188 10.832031 31.179688 11.75 31.347656 12.84375 C 31.566406 14.285156 32.597656 15.578125 33.785156 16.378906 C 33.859375 16.429688 33.941406 16.484375 34.027344 16.535156 C 34.066406 16.554688 34.089844 16.578125 34.128906 16.597656 C 36.351562 17.921875 39.21875 19.601562 42.449219 22.15625 C 43.648438 21.414062 44.867188 20.707031 46.121094 20.039062 C 47.015625 19.589844 47.714844 18.746094 48.101562 17.847656 C 49.027344 15.734375 51.105469 14.023438 53.25 13.3125 C 55.597656 12.542969 60.070312 12.367188 60.777344 15.546875 C 61.4375 18.464844 57.921875 20.882812 55.617188 21.832031 C 53.816406 22.574219 51.46875 23.21875 49.550781 22.4375 C 48.652344 22.070312 47.839844 22.3125 46.996094 22.707031 C 46.246094 23.167969 45.503906 23.636719 44.773438 24.125 C 45.703125 24.949219 46.664062 25.855469 47.632812 26.847656 C 50.039062 29.308594 53.886719 29.589844 56.617188 27.492188 C 57.453125 26.859375 58.246094 26.160156 58.984375 25.417969 C 63.332031 21.070312 66.023438 15.066406 66.023438 8.433594 Z M 24.953125 8.433594 " fill-opacity="1" fill-rule="nonzero"/></g><g fill="#222323" fill-opacity="1"><g transform="translate(73.529532, 34.299423)"><g><path d="M 12.015625 0 L 11.375 -7.921875 L 11.296875 -7.921875 L 8.5625 -0.078125 L 6.75 -0.078125 L 4.015625 -7.921875 L 3.9375 -7.921875 L 3.296875 0 L 0.265625 0 L 1.453125 -13.359375 L 4.6875 -13.359375 L 7.65625 -5.65625 L 10.625 -13.359375 L 13.859375 -13.359375 L 15.046875 0 Z M 12.015625 0 "/></g></g></g><g fill="#222323" fill-opacity="1"><g transform="translate(88.518559, 34.299423)"><g><path d="M 7.265625 -8.296875 L 10.578125 -8.296875 L 4.046875 4.203125 L 0.75 4.203125 L 3.609375 -1.296875 L -0.328125 -8.296875 L 2.984375 -8.296875 L 5.296875 -4.046875 Z M 7.265625 -8.296875 "/></g></g></g><g fill="#222323" fill-opacity="1"><g transform="translate(98.441098, 34.299423)"><g/></g></g><g fill="#222323" fill-opacity="1"><g transform="translate(102.536363, 34.299423)"><g><path d="M 0.96875 -13.359375 L 5.75 -13.359375 C 7.03125 -13.359375 8.070312 -13.015625 8.875 -12.328125 C 9.6875 -11.640625 10.09375 -10.660156 10.09375 -9.390625 C 10.09375 -8.410156 9.847656 -7.585938 9.359375 -6.921875 C 8.867188 -6.253906 8.203125 -5.785156 7.359375 -5.515625 L 11.96875 0 L 8.09375 0 L 4.015625 -5.28125 L 4.015625 0 L 0.96875 0 Z M 4.015625 -7.4375 L 4.375 -7.4375 C 4.65625 -7.4375 4.890625 -7.441406 5.078125 -7.453125 C 5.273438 -7.460938 5.5 -7.5 5.75 -7.5625 C 6 -7.625 6.195312 -7.710938 6.34375 -7.828125 C 6.5 -7.953125 6.628906 -8.125 6.734375 -8.34375 C 6.835938 -8.570312 6.890625 -8.847656 6.890625 -9.171875 C 6.890625 -9.492188 6.835938 -9.769531 6.734375 -10 C 6.628906 -10.226562 6.5 -10.398438 6.34375 -10.515625 C 6.195312 -10.640625 6 -10.734375 5.75 -10.796875 C 5.5 -10.859375 5.273438 -10.894531 5.078125 -10.90625 C 4.890625 -10.914062 4.65625 -10.921875 4.375 -10.921875 L 4.015625 -10.921875 Z M 4.015625 -7.4375 "/></g></g></g><g fill="#222323" fill-opacity="1"><g transform="translate(113.802417, 34.299423)"><g><path d="M 9.375 -3.75 L 3.34375 -3.75 C 3.34375 -3.164062 3.53125 -2.734375 3.90625 -2.453125 C 4.289062 -2.179688 4.703125 -2.046875 5.140625 -2.046875 C 5.609375 -2.046875 5.976562 -2.101562 6.25 -2.21875 C 6.519531 -2.34375 6.828125 -2.59375 7.171875 -2.96875 L 9.25 -1.921875 C 8.382812 -0.472656 6.945312 0.25 4.9375 0.25 C 3.6875 0.25 2.613281 -0.175781 1.71875 -1.03125 C 0.820312 -1.894531 0.375 -2.929688 0.375 -4.140625 C 0.375 -5.347656 0.820312 -6.382812 1.71875 -7.25 C 2.613281 -8.113281 3.6875 -8.546875 4.9375 -8.546875 C 6.25 -8.546875 7.316406 -8.164062 8.140625 -7.40625 C 8.972656 -6.644531 9.390625 -5.554688 9.390625 -4.140625 C 9.390625 -3.953125 9.382812 -3.820312 9.375 -3.75 Z M 3.4375 -5.34375 L 6.59375 -5.34375 C 6.519531 -5.769531 6.347656 -6.097656 6.078125 -6.328125 C 5.804688 -6.566406 5.453125 -6.6875 5.015625 -6.6875 C 4.546875 -6.6875 4.171875 -6.5625 3.890625 -6.3125 C 3.609375 -6.0625 3.457031 -5.738281 3.4375 -5.34375 Z M 3.4375 -5.34375 "/></g></g></g><g fill="#222323" fill-opacity="1"><g transform="translate(123.239355, 34.299423)"><g><path d="M 5.390625 -6.203125 C 4.847656 -6.203125 4.382812 -6 4 -5.59375 C 3.613281 -5.195312 3.421875 -4.71875 3.421875 -4.15625 C 3.421875 -3.582031 3.613281 -3.097656 4 -2.703125 C 4.382812 -2.304688 4.847656 -2.109375 5.390625 -2.109375 C 5.648438 -2.109375 5.894531 -2.140625 6.125 -2.203125 C 6.351562 -2.265625 6.523438 -2.328125 6.640625 -2.390625 L 6.78125 -2.5 L 7.75 -0.5 C 7.675781 -0.445312 7.570312 -0.378906 7.4375 -0.296875 C 7.300781 -0.210938 6.992188 -0.101562 6.515625 0.03125 C 6.035156 0.175781 5.519531 0.25 4.96875 0.25 C 3.75 0.25 2.675781 -0.175781 1.75 -1.03125 C 0.832031 -1.894531 0.375 -2.925781 0.375 -4.125 C 0.375 -5.332031 0.832031 -6.367188 1.75 -7.234375 C 2.675781 -8.109375 3.75 -8.546875 4.96875 -8.546875 C 5.519531 -8.546875 6.023438 -8.476562 6.484375 -8.34375 C 6.953125 -8.21875 7.285156 -8.09375 7.484375 -7.96875 L 7.75 -7.765625 L 6.78125 -5.8125 C 6.425781 -6.070312 5.960938 -6.203125 5.390625 -6.203125 Z M 5.390625 -6.203125 "/></g></g></g><g fill="#222323" fill-opacity="1"><g transform="translate(130.863366, 34.299423)"><g><path d="M 1.25 -12.9375 C 1.582031 -13.269531 1.976562 -13.4375 2.4375 -13.4375 C 2.90625 -13.4375 3.304688 -13.269531 3.640625 -12.9375 C 3.972656 -12.601562 4.140625 -12.203125 4.140625 -11.734375 C 4.140625 -11.273438 3.972656 -10.875 3.640625 -10.53125 C 3.304688 -10.195312 2.90625 -10.03125 2.4375 -10.03125 C 1.976562 -10.03125 1.582031 -10.195312 1.25 -10.53125 C 0.914062 -10.875 0.75 -11.273438 0.75 -11.734375 C 0.75 -12.203125 0.914062 -12.601562 1.25 -12.9375 Z M 0.96875 -8.296875 L 0.96875 0 L 3.84375 0 L 3.84375 -8.296875 Z M 0.96875 -8.296875 "/></g></g></g><g fill="#222323" fill-opacity="1"><g transform="translate(135.428053, 34.299423)"><g><path d="M 9.515625 -7.265625 C 10.296875 -6.421875 10.6875 -5.382812 10.6875 -4.15625 C 10.6875 -2.925781 10.296875 -1.882812 9.515625 -1.03125 C 8.742188 -0.175781 7.757812 0.25 6.5625 0.25 C 5.457031 0.25 4.550781 -0.0976562 3.84375 -0.796875 L 3.84375 4.203125 L 0.96875 4.203125 L 0.96875 -8.296875 L 3.796875 -8.296875 L 3.796875 -7.359375 L 3.84375 -7.359375 C 4.550781 -8.148438 5.457031 -8.546875 6.5625 -8.546875 C 7.757812 -8.546875 8.742188 -8.117188 9.515625 -7.265625 Z M 7.078125 -2.75 C 7.453125 -3.113281 7.640625 -3.582031 7.640625 -4.15625 C 7.640625 -4.726562 7.460938 -5.195312 7.109375 -5.5625 C 6.753906 -5.925781 6.285156 -6.109375 5.703125 -6.109375 C 5.140625 -6.109375 4.675781 -5.921875 4.3125 -5.546875 C 3.945312 -5.179688 3.765625 -4.71875 3.765625 -4.15625 C 3.765625 -3.582031 3.953125 -3.113281 4.328125 -2.75 C 4.703125 -2.382812 5.160156 -2.203125 5.703125 -2.203125 C 6.253906 -2.203125 6.710938 -2.382812 7.078125 -2.75 Z M 7.078125 -2.75 "/></g></g></g><g fill="#222323" fill-opacity="1"><g transform="translate(146.159943, 34.299423)"><g><path d="M 9.375 -3.75 L 3.34375 -3.75 C 3.34375 -3.164062 3.53125 -2.734375 3.90625 -2.453125 C 4.289062 -2.179688 4.703125 -2.046875 5.140625 -2.046875 C 5.609375 -2.046875 5.976562 -2.101562 6.25 -2.21875 C 6.519531 -2.34375 6.828125 -2.59375 7.171875 -2.96875 L 9.25 -1.921875 C 8.382812 -0.472656 6.945312 0.25 4.9375 0.25 C 3.6875 0.25 2.613281 -0.175781 1.71875 -1.03125 C 0.820312 -1.894531 0.375 -2.929688 0.375 -4.140625 C 0.375 -5.347656 0.820312 -6.382812 1.71875 -7.25 C 2.613281 -8.113281 3.6875 -8.546875 4.9375 -8.546875 C 6.25 -8.546875 7.316406 -8.164062 8.140625 -7.40625 C 8.972656 -6.644531 9.390625 -5.554688 9.390625 -4.140625 C 9.390625 -3.953125 9.382812 -3.820312 9.375 -3.75 Z M 3.4375 -5.34375 L 6.59375 -5.34375 C 6.519531 -5.769531 6.347656 -6.097656 6.078125 -6.328125 C 5.804688 -6.566406 5.453125 -6.6875 5.015625 -6.6875 C 4.546875 -6.6875 4.171875 -6.5625 3.890625 -6.3125 C 3.609375 -6.0625 3.457031 -5.738281 3.4375 -5.34375 Z M 3.4375 -5.34375 "/></g></g></g><g fill="#222323" fill-opacity="1"><g transform="translate(155.596882, 34.299423)"><g><path d="M 4.578125 -8.546875 C 5.054688 -8.546875 5.523438 -8.488281 5.984375 -8.375 C 6.453125 -8.269531 6.800781 -8.164062 7.03125 -8.0625 L 7.359375 -7.90625 L 6.421875 -6.015625 C 5.773438 -6.367188 5.160156 -6.546875 4.578125 -6.546875 C 4.253906 -6.546875 4.023438 -6.507812 3.890625 -6.4375 C 3.753906 -6.363281 3.6875 -6.226562 3.6875 -6.03125 C 3.6875 -5.988281 3.691406 -5.945312 3.703125 -5.90625 C 3.710938 -5.863281 3.734375 -5.820312 3.765625 -5.78125 C 3.796875 -5.75 3.828125 -5.71875 3.859375 -5.6875 C 3.890625 -5.664062 3.9375 -5.632812 4 -5.59375 C 4.0625 -5.5625 4.109375 -5.535156 4.140625 -5.515625 C 4.179688 -5.503906 4.242188 -5.484375 4.328125 -5.453125 C 4.421875 -5.421875 4.488281 -5.394531 4.53125 -5.375 C 4.570312 -5.363281 4.644531 -5.34375 4.75 -5.3125 C 4.851562 -5.28125 4.929688 -5.257812 4.984375 -5.25 C 5.316406 -5.144531 5.609375 -5.035156 5.859375 -4.921875 C 6.109375 -4.804688 6.367188 -4.644531 6.640625 -4.4375 C 6.921875 -4.226562 7.132812 -3.96875 7.28125 -3.65625 C 7.4375 -3.34375 7.515625 -2.988281 7.515625 -2.59375 C 7.515625 -0.695312 6.203125 0.25 3.578125 0.25 C 2.984375 0.25 2.414062 0.15625 1.875 -0.03125 C 1.34375 -0.21875 0.960938 -0.398438 0.734375 -0.578125 L 0.375 -0.875 L 1.53125 -2.828125 C 1.625 -2.753906 1.738281 -2.664062 1.875 -2.5625 C 2.019531 -2.457031 2.273438 -2.316406 2.640625 -2.140625 C 3.003906 -1.960938 3.320312 -1.875 3.59375 -1.875 C 4.1875 -1.875 4.484375 -2.078125 4.484375 -2.484375 C 4.484375 -2.660156 4.40625 -2.800781 4.25 -2.90625 C 4.101562 -3.007812 3.847656 -3.125 3.484375 -3.25 C 3.128906 -3.382812 2.847656 -3.503906 2.640625 -3.609375 C 2.117188 -3.878906 1.707031 -4.179688 1.40625 -4.515625 C 1.101562 -4.859375 0.953125 -5.3125 0.953125 -5.875 C 0.953125 -6.71875 1.273438 -7.375 1.921875 -7.84375 C 2.578125 -8.3125 3.460938 -8.546875 4.578125 -8.546875 Z M 4.578125 -8.546875 "/></g></g></g></svg>